<svg  viewBox="0 0 223 40" fill="none" xmlns="http://www.w3.org/2000/svg">
<path d="M20.1012 38.6058C30.4534 38.6058 38.8455 30.2137 38.8455 19.8615C38.8455 9.5093 30.4534 1.11719 20.1012 1.11719C9.74904 1.11719 1.35693 9.5093 1.35693 19.8615C1.35693 30.2137 9.74904 38.6058 20.1012 38.6058Z" stroke="white" stroke-opacity="0.05" stroke-width="1.8216"/>
<path d="M20.7036 14.7502V10.6763H25.4061C26.1646 10.6763 26.8838 11.0137 27.3686 11.597L27.5418 11.8055C27.9226 12.2637 28.1311 12.8407 28.1311 13.4365V16.427H24.082V14.7502H20.7036Z" fill="white"/>
<path d="M27.3693 28.0999C26.8849 28.6986 26.1559 29.0465 25.3857 29.0465H20.7036V24.9726H23.9578V21.9544H20.3931V17.8804H28.1311V26.2554C28.1311 26.8398 27.9305 27.4064 27.563 27.8606L27.3693 28.0999Z" fill="white"/>
<path d="M16.5054 24.9724H19.4243V29.0463H14.8267C14.0508 29.0463 13.3171 28.6933 12.8328 28.087L12.6292 27.8321C12.268 27.3798 12.0713 26.8183 12.0713 26.2396V13.4518C12.0713 12.8618 12.2757 12.29 12.6499 11.8338L12.8334 11.61C13.318 11.0189 14.0422 10.6763 14.8065 10.6763H19.4243V14.7502H16.5054V24.9724Z" fill="white"/>
<path d="M55.0932 21.2539H57.7299V24.9541C56.3881 26.126 54.7739 26.7119 52.8872 26.7119C51.0239 26.7061 49.4594 26.0762 48.1938 24.8223C46.934 23.5625 46.3042 21.9863 46.3042 20.0938C46.31 18.2422 46.9428 16.6865 48.2026 15.4268C49.4624 14.1611 51.0239 13.5283 52.8872 13.5283C55.6879 13.5752 57.4106 14.835 58.0551 17.3076L55.5151 17.2549C54.9233 16.5225 54.0473 16.1562 52.8872 16.1562C51.7036 16.1621 50.7485 16.5312 50.0219 17.2637C49.3012 17.9961 48.9409 18.9336 48.9409 20.0762C48.9467 21.3008 49.3129 22.2734 50.0395 22.9941C50.7661 23.7148 51.7211 24.0752 52.9047 24.0752C53.854 24.0752 54.5835 23.8877 55.0932 23.5127V21.2539ZM62.8276 13.5283V21.1748C62.8276 22.1709 63.1206 22.9033 63.7065 23.3721C64.2924 23.8408 65.0249 24.0752 65.9038 24.0752C66.7827 24.0752 67.5151 23.8408 68.101 23.3721C68.687 22.9033 68.9799 22.1709 68.9799 21.1748V13.5283H71.6167V21.8779C71.6167 23.2256 71.0747 24.3682 69.9907 25.3057C68.9067 26.2432 67.5444 26.7119 65.9038 26.7119C64.2631 26.7119 62.9008 26.2432 61.8169 25.3057C60.7329 24.3682 60.1909 23.2256 60.1909 21.8779V13.5283H62.8276ZM74.2973 13.5723H76.9604V26.7119H74.3325L74.2973 13.5723ZM82.4624 13.5635L82.4887 24.251H89.1069L89.1333 26.7119H79.852L79.8608 13.5898L82.4624 13.5635ZM96.6919 24.084C99.0297 24.0781 100.201 22.7568 100.207 20.1201C100.201 17.4834 99.0297 16.165 96.6919 16.165H91.6118V13.5195H96.6919C100.793 13.5195 102.844 15.7197 102.844 20.1201C102.844 24.5146 100.793 26.7119 96.6919 26.7119H91.6118V24.084H96.6919ZM111.826 26.7119V13.5283H117.583C118.146 13.5283 118.65 13.543 119.095 13.5723C119.54 13.5957 119.93 13.6514 120.264 13.7393C120.598 13.8271 120.882 13.9561 121.116 14.126C121.357 14.29 121.553 14.5127 121.705 14.7939C121.858 15.0752 121.972 15.4238 122.048 15.8398C122.124 16.25 122.171 16.7451 122.189 17.3252C122.189 19.9502 120.654 21.2627 117.583 21.2627H114.463V26.7119H111.826ZM114.463 18.8018H118.155C119.215 18.7842 119.76 18.3008 119.789 17.3516V17.1494C119.783 16.9326 119.751 16.751 119.693 16.6045C119.634 16.458 119.54 16.3408 119.411 16.2529C119.288 16.1592 119.121 16.0918 118.91 16.0508C118.705 16.0098 118.453 15.9893 118.155 15.9893L114.463 15.998V18.8018ZM124.122 21.2539V18.8018H130.459C131.52 18.7842 132.065 18.3008 132.094 17.3516C132.065 16.4844 131.529 16.0332 130.486 15.998L124.131 16.0068V13.5283H129.879C132.955 13.5283 134.493 14.7939 134.493 17.3252C134.493 19.2295 133.685 20.4424 132.068 20.9639L135.355 26.7119H132.331L129.176 21.2627L124.122 21.2539ZM136.19 20.1201C136.19 18.2451 136.799 16.6777 138.018 15.418C139.237 14.1582 140.783 13.5283 142.658 13.5283C144.533 13.5283 146.08 14.1582 147.299 15.418C148.518 16.6777 149.127 18.2451 149.127 20.1201C149.127 21.9951 148.518 23.5625 147.299 24.8223C146.08 26.082 144.533 26.7119 142.658 26.7119C140.783 26.7119 139.237 26.082 138.018 24.8223C136.799 23.5566 136.19 21.9893 136.19 20.1201ZM142.667 24.251C143.833 24.251 144.762 23.8555 145.453 23.0645C146.145 22.2734 146.49 21.292 146.49 20.1201C146.49 18.9482 146.145 17.9668 145.453 17.1758C144.762 16.3848 143.827 15.9893 142.65 15.9893C141.484 15.9893 140.555 16.3848 139.864 17.1758C139.172 17.9668 138.826 18.9482 138.826 20.1201C138.826 21.292 139.172 22.2734 139.864 23.0645C140.555 23.8555 141.49 24.251 142.667 24.251ZM161.704 13.502V15.9629L157.582 15.9893V26.7119H154.946V15.9893L150.841 15.9629V13.502H161.704ZM163.401 20.1201C163.401 18.2451 164.01 16.6777 165.229 15.418C166.448 14.1582 167.994 13.5283 169.869 13.5283C171.744 13.5283 173.291 14.1582 174.51 15.418C175.729 16.6777 176.338 18.2451 176.338 20.1201C176.338 21.9951 175.729 23.5625 174.51 24.8223C173.291 26.082 171.744 26.7119 169.869 26.7119C167.994 26.7119 166.448 26.082 165.229 24.8223C164.01 23.5566 163.401 21.9893 163.401 20.1201ZM169.878 24.251C171.044 24.251 171.973 23.8555 172.664 23.0645C173.356 22.2734 173.701 21.292 173.701 20.1201C173.701 18.9482 173.356 17.9668 172.664 17.1758C171.973 16.3848 171.038 15.9893 169.861 15.9893C168.695 15.9893 167.766 16.3848 167.074 17.1758C166.383 17.9668 166.037 18.9482 166.037 20.1201C166.037 21.292 166.383 22.2734 167.074 23.0645C167.766 23.8555 168.7 24.251 169.878 24.251ZM177.78 20.0938C177.785 18.2422 178.418 16.6865 179.678 15.4268C180.938 14.1611 182.499 13.5283 184.363 13.5283C187.509 13.5986 189.358 14.8232 189.908 17.2021L187.448 17.2109C186.551 16.5078 185.523 16.1562 184.363 16.1562C183.179 16.1621 182.224 16.5312 181.497 17.2637C180.777 17.9961 180.416 18.9336 180.416 20.0762C180.422 21.3008 180.788 22.2734 181.515 22.9941C182.241 23.7148 183.197 24.0752 184.38 24.0752C185.564 24.0752 186.586 23.7266 187.448 23.0293L189.908 23.0908C189.323 25.4873 187.474 26.6943 184.363 26.7119C182.499 26.7061 180.935 26.0762 179.669 24.8223C178.409 23.5625 177.78 21.9863 177.78 20.0938ZM191.508 20.1201C191.508 18.2451 192.117 16.6777 193.336 15.418C194.555 14.1582 196.102 13.5283 197.977 13.5283C199.852 13.5283 201.399 14.1582 202.617 15.418C203.836 16.6777 204.446 18.2451 204.446 20.1201C204.446 21.9951 203.836 23.5625 202.617 24.8223C201.399 26.082 199.852 26.7119 197.977 26.7119C196.102 26.7119 194.555 26.082 193.336 24.8223C192.117 23.5566 191.508 21.9893 191.508 20.1201ZM197.986 24.251C199.152 24.251 200.08 23.8555 200.772 23.0645C201.463 22.2734 201.809 21.292 201.809 20.1201C201.809 18.9482 201.463 17.9668 200.772 17.1758C200.08 16.3848 199.146 15.9893 197.968 15.9893C196.802 15.9893 195.873 16.3848 195.182 17.1758C194.49 17.9668 194.145 18.9482 194.145 20.1201C194.145 21.292 194.49 22.2734 195.182 23.0645C195.873 23.8555 196.808 24.251 197.986 24.251ZM209.253 13.5635L209.28 24.251H215.898L215.924 26.7119H206.643L206.652 13.5898L209.253 13.5635Z" fill="white"/>
</svg>
